<?xml version="1.0" encoding="utf-8"?>
<!-- Generator: Adobe Illustrator 19.0.0, SVG Export Plug-In . SVG Version: 6.00 Build 0)  -->
<svg version="1.1" id="Capa_1" xmlns="http://www.w3.org/2000/svg" xmlns:xlink="http://www.w3.org/1999/xlink" x="0px" y="0px"
	 viewBox="-280 372.4 49.1 48.6" style="enable-background:new -280 372.4 49.1 48.6;" xml:space="preserve">
<style type="text/css">
	.st0{display:none;}
	.st1{fill:none;stroke:#FFFFFF;stroke-width:2;stroke-linecap:round;stroke-linejoin:round;stroke-miterlimit:10;}
	.st2{display:inline;fill:none;stroke:#FFFFFF;stroke-width:2;stroke-linecap:round;stroke-linejoin:round;stroke-miterlimit:10;}
	.st3{fill:none;stroke:#FFFFFF;stroke-miterlimit:10;}
</style>
<g class="st0">
	<path class="st1" d="M-278.8,373.7h46v46h-46V373.7z M-278.3,411.7h45.5 M-278.3,381.7h45.5 M-274.8,415.7h2 M-268.8,415.7h2
		 M-262.8,415.7h2 M-256.8,415.7h2 M-250.8,415.7h2 M-244.8,415.7h2 M-238.8,415.7h2 M-274.8,377.7h2 M-268.8,377.7h2 M-262.8,377.7
		h2 M-256.8,377.7h2 M-250.8,377.7h2 M-244.8,377.7h2 M-238.8,377.7h2"/>
	<path class="st2" d="M-278.3,374.9l45.5,21.6l-45.5,21.9V374.9z"/>
</g>
<g transform="translate(-135.06609,-358.03129)">
	<path id="path2176" class="st3" d="M-134.3,777.1c-0.1-0.2-0.6-1.5-1.1-3c-1.9-5.6-3.4-10.4-5.6-17.1l-2.3-6.9l0.3-0.8
		c0.2-0.5,0.3-1.1,0.3-1.4c0-0.3,0.1-1.1,0.3-1.8c0.2-0.9,0.5-1.4,1-1.9c0.4-0.4,1.5-1.6,2.6-2.8c3.2-3.8,5.4-5.2,7.8-5.2
		c1,0,1.3,0.1,2,0.7c0.4,0.4,0.9,0.9,1.1,1.2c0.5,0.7,0.8,0.6,1.3-0.5c0.7-1.4,1.8-2.7,2.9-3.3c0.8-0.5,1.5-0.6,4.8-0.7
		c2.1-0.1,4.2-0.3,4.6-0.4c0.8-0.2,0.1-1.1,8.8,10.1l5.8,7.4v1.1c0,1,0.1,1.2,1.2,2.7c1.1,1.6,1.2,1.7,1.2,3.1
		c0,0.9-0.1,1.6-0.2,1.7c-0.1,0.1-1.2,0.4-2.3,0.7s-4.4,1-7.3,1.7s-5.3,1.3-5.4,1.3s-0.6,0.5-1.2,1.2c-1.6,1.8-2.1,2-4.1,2.1l-1.8,0
		l-2.8,1.9c-3.2,2.2-6,4.3-9.2,7C-134.3,777.5-134.1,777.4-134.3,777.1z M-131.6,772.5c2-2.1,5.6-5.5,7-6.4c1.9-1.3,3.1-1.8,4.8-2
		l1.5-0.2l0.2-1.4c0.1-0.8,0.4-1.8,0.5-2.4c0.2-0.6,0.3-1.1,0.1-1.2c-0.1-0.1-0.8-0.2-1.6-0.2c-2.7,0-5.2,1.5-8.6,4.9
		c-1.1,1.1-2.7,2.7-3.7,3.7c-1.7,1.6-1.8,1.7-1.8,2.6c0,0.5-0.1,1.6-0.1,2.4C-133.3,774.1-133.1,774.2-131.6,772.5z M-133.9,770.4
		l0.1-1.6l-3.7-10.9c-2-6-3.7-11-3.8-11.1c-0.3-0.4-0.4,0.1-0.5,1.5c-0.1,1.3,0,1.7,1.7,6.6c3.2,9.5,5.5,16.3,5.7,16.7
		C-134.2,772.4-134,772.1-133.9,770.4z M-131.8,766.3c0.7-0.7,1.9-1.9,2.7-2.7c3.8-4.1,6.8-6,9.8-6c0.9,0,1.2-0.1,1.3-0.4
		c0.1-0.2-0.3-1.2-0.9-2.2c-0.6-1-2-3.6-3.1-5.6c-1.2-2.1-2.7-4.9-3.5-6.3c-1.4-2.6-3.5-5.4-4.4-5.8c-1.3-0.6-3.4,0.1-5.3,1.8
		c-1.5,1.4-5.3,5.7-5.4,6.2c0,0.2,1.4,4.6,3.1,9.8c4.1,12.2,4.2,12.4,4.4,12.4C-133.1,767.5-132.5,766.9-131.8,766.3z M-112.7,760.2
		c1.8-2.2,2.6-2.5,8.8-2.8c2.1-0.1,3.6-0.3,3.7-0.5c0.2-0.2,0.1-0.6,0-1.5c-0.1-0.7-0.2-1.7-0.2-2.2c0-1.5-0.2-1.5-3.4-1.2
		c-5.7,0.5-8.6,1.5-10.2,3.6c-0.7,0.9-2.1,4.1-1.9,4.4c0.1,0.1,0.4,0.1,0.8,0.1c0.6-0.1,0.7,0,0.9,0.7c0.1,0.4,0.3,0.7,0.4,0.7
		S-113.3,760.9-112.7,760.2z M-115.7,756.2c0.5-1.1,2-3,2.9-3.5c1.2-0.8,3.5-1.4,6.8-1.7c4.3-0.5,4.7-0.5,4.6-1
		c0-0.2-2.9-3.9-6.3-8.2c-4.8-6.1-6.3-7.9-6.6-7.7c-0.2,0.1-2,0.3-4.1,0.4c-4.5,0.2-5.4,0.5-6.6,2.1c-0.7,0.9-1.5,2.5-1.5,2.9
		c0,0.2,0.4,1,0.9,1.8c0.5,0.9,1.5,2.6,2.2,3.8c5,8.9,6.8,12.1,7.1,12.1C-116.2,757.1-115.9,756.7-115.7,756.2z M-113,750.2
		c-0.4-0.5,0.6-2.3,1.3-2.3c0.7,0,0.6,0.8-0.1,1.7C-112.4,750.3-112.7,750.5-113,750.2z"/>
</g>
</svg>
